<svg width="122" height="103" viewBox="0 0 122 103" fill="none" xmlns="http://www.w3.org/2000/svg">
<rect width="121.47" height="102.087" rx="16" fill="#22D4FD"/>
<path d="M35.2089 60.0434L42.7689 43.2434H45.8409L53.4249 60.0434H50.1609L43.6569 44.8994H44.9049L38.4249 60.0434H35.2089ZM38.6889 56.1554L39.5289 53.7074H48.6009L49.4409 56.1554H38.6889ZM60.5803 60.2114C59.3483 60.2114 58.2363 59.9394 57.2443 59.3954C56.2683 58.8354 55.5003 58.0674 54.9403 57.0914C54.3803 56.1154 54.1003 54.9634 54.1003 53.6354C54.1003 52.3074 54.3803 51.1554 54.9403 50.1794C55.5003 49.2034 56.2683 48.4434 57.2443 47.8994C58.2363 47.3554 59.3483 47.0834 60.5803 47.0834C61.6523 47.0834 62.6123 47.3234 63.4603 47.8034C64.3083 48.2674 64.9803 48.9794 65.4763 49.9394C65.9723 50.8994 66.2203 52.1314 66.2203 53.6354C66.2203 55.1234 65.9803 56.3554 65.5003 57.3314C65.0203 58.2914 64.3563 59.0114 63.5083 59.4914C62.6603 59.9714 61.6843 60.2114 60.5803 60.2114ZM60.9403 57.6434C61.6603 57.6434 62.3003 57.4834 62.8603 57.1634C63.4363 56.8434 63.8923 56.3794 64.2283 55.7714C64.5803 55.1634 64.7563 54.4514 64.7563 53.6354C64.7563 52.8034 64.5803 52.0914 64.2283 51.4994C63.8923 50.8914 63.4363 50.4274 62.8603 50.1074C62.3003 49.7874 61.6603 49.6274 60.9403 49.6274C60.2203 49.6274 59.5723 49.7874 58.9963 50.1074C58.4363 50.4274 57.9803 50.8914 57.6283 51.4994C57.2923 52.0914 57.1243 52.8034 57.1243 53.6354C57.1243 54.4514 57.2923 55.1634 57.6283 55.7714C57.9803 56.3794 58.4363 56.8434 58.9963 57.1634C59.5723 57.4834 60.2203 57.6434 60.9403 57.6434ZM64.8283 60.0434V57.0194L64.9483 53.6114L64.7083 50.2034V42.2354H67.6843V60.0434H64.8283ZM77.0569 60.2114C75.8249 60.2114 74.7129 59.9394 73.7209 59.3954C72.7449 58.8354 71.9769 58.0674 71.4169 57.0914C70.8569 56.1154 70.5769 54.9634 70.5769 53.6354C70.5769 52.3074 70.8569 51.1554 71.4169 50.1794C71.9769 49.2034 72.7449 48.4434 73.7209 47.8994C74.7129 47.3554 75.8249 47.0834 77.0569 47.0834C78.1289 47.0834 79.0889 47.3234 79.9369 47.8034C80.7849 48.2674 81.4569 48.9794 81.9529 49.9394C82.4489 50.8994 82.6969 52.1314 82.6969 53.6354C82.6969 55.1234 82.4569 56.3554 81.9769 57.3314C81.4969 58.2914 80.8329 59.0114 79.9849 59.4914C79.1369 59.9714 78.1609 60.2114 77.0569 60.2114ZM77.4169 57.6434C78.1369 57.6434 78.7769 57.4834 79.3369 57.1634C79.9129 56.8434 80.3689 56.3794 80.7049 55.7714C81.0569 55.1634 81.2329 54.4514 81.2329 53.6354C81.2329 52.8034 81.0569 52.0914 80.7049 51.4994C80.3689 50.8914 79.9129 50.4274 79.3369 50.1074C78.7769 49.7874 78.1369 49.6274 77.4169 49.6274C76.6969 49.6274 76.0489 49.7874 75.4729 50.1074C74.9129 50.4274 74.4569 50.8914 74.1049 51.4994C73.7689 52.0914 73.6009 52.8034 73.6009 53.6354C73.6009 54.4514 73.7689 55.1634 74.1049 55.7714C74.4569 56.3794 74.9129 56.8434 75.4729 57.1634C76.0489 57.4834 76.6969 57.6434 77.4169 57.6434ZM81.3049 60.0434V57.0194L81.4249 53.6114L81.1849 50.2034V42.2354H84.1609V60.0434H81.3049Z" fill="black"/>
<rect width="121.47" height="102.087" rx="16" stroke="#22D4FD"/>
</svg>
