<svg width="451" height="110" viewBox="0 0 451 110" fill="none" xmlns="http://www.w3.org/2000/svg">
<rect x="2.5" y="24.5" width="427" height="83" rx="7.5" fill="#22D4FD" stroke="#22D4FD" stroke-width="5" stroke-linejoin="round"/>
<rect x="21.5" y="2.5" width="427" height="83" rx="7.5" stroke="#22D4FD" stroke-width="5" stroke-linejoin="round"/>
<path d="M29.1623 75V58.2H36.0743C37.5623 58.2 38.8343 58.44 39.8903 58.92C40.9623 59.4 41.7863 60.088 42.3623 60.984C42.9383 61.88 43.2263 62.944 43.2263 64.176C43.2263 65.408 42.9383 66.472 42.3623 67.368C41.7863 68.264 40.9623 68.952 39.8903 69.432C38.8343 69.912 37.5623 70.152 36.0743 70.152H30.8903L32.2823 68.688V75H29.1623ZM32.2823 69.024L30.8903 67.512H35.9303C37.3063 67.512 38.3383 67.224 39.0262 66.648C39.7303 66.056 40.0823 65.232 40.0823 64.176C40.0823 63.104 39.7303 62.28 39.0262 61.704C38.3383 61.128 37.3063 60.84 35.9303 60.84H30.8903L32.2823 59.304V69.024ZM51.7671 75.168C50.4551 75.168 49.2871 74.888 48.2631 74.328C47.2391 73.752 46.4311 72.968 45.8391 71.976C45.2471 70.984 44.9511 69.856 44.9511 68.592C44.9511 67.312 45.2471 66.184 45.8391 65.208C46.4311 64.216 47.2391 63.44 48.2631 62.88C49.2871 62.32 50.4551 62.04 51.7671 62.04C53.0951 62.04 54.2711 62.32 55.2951 62.88C56.3351 63.44 57.1431 64.208 57.7191 65.184C58.3111 66.16 58.6071 67.296 58.6071 68.592C58.6071 69.856 58.3111 70.984 57.7191 71.976C57.1431 72.968 56.3351 73.752 55.2951 74.328C54.2711 74.888 53.0951 75.168 51.7671 75.168ZM51.7671 72.6C52.5031 72.6 53.1591 72.44 53.7351 72.12C54.3111 71.8 54.7591 71.336 55.0791 70.728C55.4151 70.12 55.5831 69.408 55.5831 68.592C55.5831 67.76 55.4151 67.048 55.0791 66.456C54.7591 65.848 54.3111 65.384 53.7351 65.064C53.1591 64.744 52.5111 64.584 51.7911 64.584C51.0551 64.584 50.3991 64.744 49.8231 65.064C49.2631 65.384 48.8151 65.848 48.4791 66.456C48.1431 67.048 47.9751 67.76 47.9751 68.592C47.9751 69.408 48.1431 70.12 48.4791 70.728C48.8151 71.336 49.2631 71.8 49.8231 72.12C50.3991 72.44 51.0471 72.6 51.7671 72.6ZM61.4758 75V62.184H64.3318V65.712L63.9958 64.68C64.3798 63.816 64.9798 63.16 65.7958 62.712C66.6278 62.264 67.6598 62.04 68.8918 62.04V64.896C68.7638 64.864 68.6438 64.848 68.5318 64.848C68.4198 64.832 68.3078 64.824 68.1958 64.824C67.0598 64.824 66.1558 65.16 65.4838 65.832C64.8118 66.488 64.4758 67.472 64.4758 68.784V75H61.4758ZM72.5374 66.024C71.9934 66.024 71.5294 65.84 71.1454 65.472C70.7614 65.088 70.5694 64.608 70.5694 64.032C70.5694 63.424 70.7614 62.944 71.1454 62.592C71.5294 62.224 71.9934 62.04 72.5374 62.04C73.0814 62.04 73.5454 62.224 73.9294 62.592C74.3134 62.944 74.5054 63.424 74.5054 64.032C74.5054 64.608 74.3134 65.088 73.9294 65.472C73.5454 65.84 73.0814 66.024 72.5374 66.024ZM72.5374 75.168C71.9934 75.168 71.5294 74.984 71.1454 74.616C70.7614 74.232 70.5694 73.752 70.5694 73.176C70.5694 72.568 70.7614 72.088 71.1454 71.736C71.5294 71.368 71.9934 71.184 72.5374 71.184C73.0814 71.184 73.5454 71.368 73.9294 71.736C74.3134 72.088 74.5054 72.568 74.5054 73.176C74.5054 73.752 74.3134 74.232 73.9294 74.616C73.5454 74.984 73.0814 75.168 72.5374 75.168ZM92.2056 75.24C90.8936 75.24 89.6856 75.032 88.5816 74.616C87.4936 74.184 86.5416 73.584 85.7256 72.816C84.9096 72.032 84.2776 71.112 83.8296 70.056C83.3816 69 83.1576 67.848 83.1576 66.6C83.1576 65.352 83.3816 64.2 83.8296 63.144C84.2776 62.088 84.9096 61.176 85.7256 60.408C86.5576 59.624 87.5256 59.024 88.6296 58.608C89.7336 58.176 90.9416 57.96 92.2536 57.96C93.6776 57.96 94.9576 58.192 96.0936 58.656C97.2456 59.12 98.2136 59.8 98.9976 60.696L97.0296 62.616C96.3736 61.96 95.6616 61.48 94.8936 61.176C94.1416 60.856 93.3096 60.696 92.3976 60.696C91.5176 60.696 90.7016 60.84 89.9496 61.128C89.1976 61.416 88.5496 61.824 88.0056 62.352C87.4616 62.88 87.0376 63.504 86.7336 64.224C86.4456 64.944 86.3016 65.736 86.3016 66.6C86.3016 67.448 86.4456 68.232 86.7336 68.952C87.0376 69.672 87.4616 70.304 88.0056 70.848C88.5496 71.376 89.1896 71.784 89.9256 72.072C90.6616 72.36 91.4776 72.504 92.3736 72.504C93.2056 72.504 94.0056 72.376 94.7736 72.12C95.5576 71.848 96.3016 71.4 97.0056 70.776L98.7816 73.104C97.9016 73.808 96.8776 74.344 95.7096 74.712C94.5576 75.064 93.3896 75.24 92.2056 75.24ZM95.8296 72.696V66.408H98.7816V73.104L95.8296 72.696ZM110.505 75V72.408L110.337 71.856V67.32C110.337 66.44 110.073 65.76 109.545 65.28C109.017 64.784 108.217 64.536 107.145 64.536C106.425 64.536 105.713 64.648 105.009 64.872C104.321 65.096 103.737 65.408 103.257 65.808L102.081 63.624C102.769 63.096 103.585 62.704 104.529 62.448C105.489 62.176 106.481 62.04 107.505 62.04C109.361 62.04 110.793 62.488 111.801 63.384C112.825 64.264 113.337 65.632 113.337 67.488V75H110.505ZM106.473 75.168C105.513 75.168 104.673 75.008 103.953 74.688C103.233 74.352 102.673 73.896 102.273 73.32C101.889 72.728 101.697 72.064 101.697 71.328C101.697 70.608 101.865 69.96 102.201 69.384C102.553 68.808 103.121 68.352 103.905 68.016C104.689 67.68 105.729 67.512 107.025 67.512H110.745V69.504H107.241C106.217 69.504 105.529 69.672 105.177 70.008C104.825 70.328 104.649 70.728 104.649 71.208C104.649 71.752 104.865 72.184 105.297 72.504C105.729 72.824 106.329 72.984 107.097 72.984C107.833 72.984 108.489 72.816 109.065 72.48C109.657 72.144 110.081 71.648 110.337 70.992L110.841 72.792C110.553 73.544 110.033 74.128 109.281 74.544C108.545 74.96 107.609 75.168 106.473 75.168ZM124.291 75.168C123.203 75.168 122.235 74.928 121.387 74.448C120.539 73.968 119.867 73.248 119.371 72.288C118.891 71.312 118.651 70.08 118.651 68.592C118.651 67.088 118.899 65.856 119.395 64.896C119.907 63.936 120.587 63.224 121.435 62.76C122.299 62.28 123.251 62.04 124.291 62.04C125.555 62.04 126.667 62.312 127.627 62.856C128.603 63.4 129.371 64.16 129.931 65.136C130.507 66.112 130.795 67.264 130.795 68.592C130.795 69.92 130.507 71.072 129.931 72.048C129.371 73.024 128.603 73.792 127.627 74.352C126.667 74.896 125.555 75.168 124.291 75.168ZM117.187 75V57.192H120.187V65.16L119.947 68.568L120.043 71.976V75H117.187ZM123.955 72.6C124.675 72.6 125.315 72.44 125.875 72.12C126.451 71.8 126.907 71.336 127.243 70.728C127.579 70.12 127.747 69.408 127.747 68.592C127.747 67.76 127.579 67.048 127.243 66.456C126.907 65.848 126.451 65.384 125.875 65.064C125.315 64.744 124.675 64.584 123.955 64.584C123.235 64.584 122.587 64.744 122.011 65.064C121.435 65.384 120.979 65.848 120.643 66.456C120.307 67.048 120.139 67.76 120.139 68.592C120.139 69.408 120.307 70.12 120.643 70.728C120.979 71.336 121.435 71.8 122.011 72.12C122.587 72.44 123.235 72.6 123.955 72.6ZM133.64 75V62.184H136.496V65.712L136.16 64.68C136.544 63.816 137.144 63.16 137.96 62.712C138.792 62.264 139.824 62.04 141.056 62.04V64.896C140.928 64.864 140.808 64.848 140.696 64.848C140.584 64.832 140.472 64.824 140.36 64.824C139.224 64.824 138.32 65.16 137.648 65.832C136.976 66.488 136.64 67.472 136.64 68.784V75H133.64ZM143.601 75V62.184H146.601V75H143.601ZM145.113 60.072C144.553 60.072 144.089 59.896 143.721 59.544C143.369 59.192 143.193 58.768 143.193 58.272C143.193 57.76 143.369 57.336 143.721 57C144.089 56.648 144.553 56.472 145.113 56.472C145.673 56.472 146.129 56.64 146.481 56.976C146.849 57.296 147.033 57.704 147.033 58.2C147.033 58.728 146.857 59.176 146.505 59.544C146.153 59.896 145.689 60.072 145.113 60.072ZM156.562 75.168C155.138 75.168 153.89 74.888 152.818 74.328C151.762 73.752 150.938 72.968 150.346 71.976C149.77 70.984 149.482 69.856 149.482 68.592C149.482 67.312 149.762 66.184 150.322 65.208C150.898 64.216 151.682 63.44 152.674 62.88C153.682 62.32 154.826 62.04 156.106 62.04C157.354 62.04 158.466 62.312 159.442 62.856C160.418 63.4 161.186 64.168 161.746 65.16C162.306 66.152 162.586 67.32 162.586 68.664C162.586 68.792 162.578 68.936 162.562 69.096C162.562 69.256 162.554 69.408 162.538 69.552H151.858V67.56H160.954L159.778 68.184C159.794 67.448 159.642 66.8 159.322 66.24C159.002 65.68 158.562 65.24 158.002 64.92C157.458 64.6 156.826 64.44 156.106 64.44C155.37 64.44 154.722 64.6 154.162 64.92C153.618 65.24 153.186 65.688 152.866 66.264C152.562 66.824 152.41 67.488 152.41 68.256V68.736C152.41 69.504 152.586 70.184 152.938 70.776C153.29 71.368 153.786 71.824 154.426 72.144C155.066 72.464 155.802 72.624 156.634 72.624C157.354 72.624 158.002 72.512 158.578 72.288C159.154 72.064 159.666 71.712 160.114 71.232L161.722 73.08C161.146 73.752 160.418 74.272 159.538 74.64C158.674 74.992 157.682 75.168 156.562 75.168ZM165.468 75V57.192H168.468V75H165.468ZM181.75 57.192L180.358 62.52L179.974 60.72C180.534 60.72 180.998 60.896 181.366 61.248C181.734 61.6 181.918 62.072 181.918 62.664C181.918 63.256 181.734 63.736 181.366 64.104C180.998 64.456 180.542 64.632 179.998 64.632C179.422 64.632 178.95 64.448 178.582 64.08C178.214 63.712 178.03 63.24 178.03 62.664C178.03 62.472 178.038 62.296 178.054 62.136C178.086 61.96 178.142 61.752 178.222 61.512C178.302 61.272 178.414 60.968 178.558 60.6L179.83 57.192H181.75ZM186.838 57.192L185.446 62.52L185.062 60.72C185.622 60.72 186.086 60.896 186.454 61.248C186.822 61.6 187.006 62.072 187.006 62.664C187.006 63.256 186.822 63.736 186.454 64.104C186.086 64.456 185.63 64.632 185.086 64.632C184.51 64.632 184.038 64.448 183.67 64.08C183.302 63.712 183.118 63.24 183.118 62.664C183.118 62.472 183.126 62.296 183.142 62.136C183.174 61.96 183.23 61.752 183.31 61.512C183.39 61.272 183.502 60.968 183.646 60.6L184.918 57.192H186.838ZM198.12 75.24C196.808 75.24 195.6 75.032 194.496 74.616C193.408 74.184 192.456 73.584 191.64 72.816C190.824 72.032 190.192 71.112 189.744 70.056C189.296 69 189.072 67.848 189.072 66.6C189.072 65.352 189.296 64.2 189.744 63.144C190.192 62.088 190.824 61.176 191.64 60.408C192.472 59.624 193.44 59.024 194.544 58.608C195.648 58.176 196.856 57.96 198.168 57.96C199.592 57.96 200.872 58.192 202.008 58.656C203.16 59.12 204.128 59.8 204.912 60.696L202.944 62.616C202.288 61.96 201.576 61.48 200.808 61.176C200.056 60.856 199.224 60.696 198.312 60.696C197.432 60.696 196.616 60.84 195.864 61.128C195.112 61.416 194.464 61.824 193.92 62.352C193.376 62.88 192.952 63.504 192.648 64.224C192.36 64.944 192.216 65.736 192.216 66.6C192.216 67.448 192.36 68.232 192.648 68.952C192.952 69.672 193.376 70.304 193.92 70.848C194.464 71.376 195.104 71.784 195.84 72.072C196.576 72.36 197.392 72.504 198.288 72.504C199.12 72.504 199.92 72.376 200.688 72.12C201.472 71.848 202.216 71.4 202.92 70.776L204.696 73.104C203.816 73.808 202.792 74.344 201.624 74.712C200.472 75.064 199.304 75.24 198.12 75.24ZM201.744 72.696V66.408H204.696V73.104L201.744 72.696ZM216.419 75V72.408L216.251 71.856V67.32C216.251 66.44 215.987 65.76 215.459 65.28C214.931 64.784 214.131 64.536 213.059 64.536C212.339 64.536 211.627 64.648 210.923 64.872C210.235 65.096 209.651 65.408 209.171 65.808L207.995 63.624C208.683 63.096 209.499 62.704 210.443 62.448C211.403 62.176 212.395 62.04 213.419 62.04C215.275 62.04 216.707 62.488 217.715 63.384C218.739 64.264 219.251 65.632 219.251 67.488V75H216.419ZM212.387 75.168C211.427 75.168 210.587 75.008 209.867 74.688C209.147 74.352 208.587 73.896 208.187 73.32C207.803 72.728 207.611 72.064 207.611 71.328C207.611 70.608 207.779 69.96 208.115 69.384C208.467 68.808 209.035 68.352 209.819 68.016C210.603 67.68 211.643 67.512 212.939 67.512H216.659V69.504H213.155C212.131 69.504 211.443 69.672 211.091 70.008C210.739 70.328 210.563 70.728 210.563 71.208C210.563 71.752 210.779 72.184 211.211 72.504C211.643 72.824 212.243 72.984 213.011 72.984C213.747 72.984 214.403 72.816 214.979 72.48C215.571 72.144 215.995 71.648 216.251 70.992L216.755 72.792C216.467 73.544 215.947 74.128 215.195 74.544C214.459 74.96 213.523 75.168 212.387 75.168ZM230.205 75.168C229.117 75.168 228.149 74.928 227.301 74.448C226.453 73.968 225.781 73.248 225.285 72.288C224.805 71.312 224.565 70.08 224.565 68.592C224.565 67.088 224.813 65.856 225.309 64.896C225.821 63.936 226.501 63.224 227.349 62.76C228.213 62.28 229.165 62.04 230.205 62.04C231.469 62.04 232.581 62.312 233.541 62.856C234.517 63.4 235.285 64.16 235.845 65.136C236.421 66.112 236.709 67.264 236.709 68.592C236.709 69.92 236.421 71.072 235.845 72.048C235.285 73.024 234.517 73.792 233.541 74.352C232.581 74.896 231.469 75.168 230.205 75.168ZM223.101 75V57.192H226.101V65.16L225.861 68.568L225.957 71.976V75H223.101ZM229.869 72.6C230.589 72.6 231.229 72.44 231.789 72.12C232.365 71.8 232.821 71.336 233.157 70.728C233.493 70.12 233.661 69.408 233.661 68.592C233.661 67.76 233.493 67.048 233.157 66.456C232.821 65.848 232.365 65.384 231.789 65.064C231.229 64.744 230.589 64.584 229.869 64.584C229.149 64.584 228.501 64.744 227.925 65.064C227.349 65.384 226.893 65.848 226.557 66.456C226.221 67.048 226.053 67.76 226.053 68.592C226.053 69.408 226.221 70.12 226.557 70.728C226.893 71.336 227.349 71.8 227.925 72.12C228.501 72.44 229.149 72.6 229.869 72.6ZM239.554 75V62.184H242.41V65.712L242.074 64.68C242.458 63.816 243.058 63.16 243.874 62.712C244.706 62.264 245.738 62.04 246.97 62.04V64.896C246.842 64.864 246.722 64.848 246.61 64.848C246.498 64.832 246.386 64.824 246.274 64.824C245.138 64.824 244.234 65.16 243.562 65.832C242.89 66.488 242.554 67.472 242.554 68.784V75H239.554ZM249.515 75V62.184H252.515V75H249.515ZM251.027 60.072C250.467 60.072 250.003 59.896 249.635 59.544C249.283 59.192 249.107 58.768 249.107 58.272C249.107 57.76 249.283 57.336 249.635 57C250.003 56.648 250.467 56.472 251.027 56.472C251.587 56.472 252.043 56.64 252.395 56.976C252.763 57.296 252.947 57.704 252.947 58.2C252.947 58.728 252.771 59.176 252.419 59.544C252.067 59.896 251.603 60.072 251.027 60.072ZM262.476 75.168C261.052 75.168 259.804 74.888 258.732 74.328C257.676 73.752 256.852 72.968 256.26 71.976C255.684 70.984 255.396 69.856 255.396 68.592C255.396 67.312 255.676 66.184 256.236 65.208C256.812 64.216 257.596 63.44 258.588 62.88C259.596 62.32 260.74 62.04 262.02 62.04C263.268 62.04 264.38 62.312 265.356 62.856C266.332 63.4 267.1 64.168 267.66 65.16C268.22 66.152 268.5 67.32 268.5 68.664C268.5 68.792 268.492 68.936 268.476 69.096C268.476 69.256 268.468 69.408 268.452 69.552H257.772V67.56H266.868L265.692 68.184C265.708 67.448 265.556 66.8 265.236 66.24C264.916 65.68 264.476 65.24 263.916 64.92C263.372 64.6 262.74 64.44 262.02 64.44C261.284 64.44 260.636 64.6 260.076 64.92C259.532 65.24 259.1 65.688 258.78 66.264C258.476 66.824 258.324 67.488 258.324 68.256V68.736C258.324 69.504 258.5 70.184 258.852 70.776C259.204 71.368 259.7 71.824 260.34 72.144C260.98 72.464 261.716 72.624 262.548 72.624C263.268 72.624 263.916 72.512 264.492 72.288C265.068 72.064 265.58 71.712 266.028 71.232L267.636 73.08C267.06 73.752 266.332 74.272 265.452 74.64C264.588 74.992 263.596 75.168 262.476 75.168ZM278.654 62.04C279.678 62.04 280.59 62.24 281.39 62.64C282.206 63.04 282.846 63.656 283.31 64.488C283.774 65.304 284.006 66.36 284.006 67.656V75H281.006V68.04C281.006 66.904 280.734 66.056 280.19 65.496C279.662 64.936 278.918 64.656 277.958 64.656C277.254 64.656 276.63 64.8 276.086 65.088C275.542 65.376 275.118 65.808 274.814 66.384C274.526 66.944 274.382 67.656 274.382 68.52V75H271.382V62.184H274.238V65.64L273.734 64.584C274.182 63.768 274.83 63.144 275.678 62.712C276.542 62.264 277.534 62.04 278.654 62.04ZM286.756 75V73.104L294.652 63.552L295.204 64.584H286.9V62.184H297.604V64.08L289.708 73.632L289.108 72.6H297.82V75H286.756ZM306.158 75.168C304.846 75.168 303.678 74.888 302.654 74.328C301.63 73.752 300.822 72.968 300.23 71.976C299.638 70.984 299.342 69.856 299.342 68.592C299.342 67.312 299.638 66.184 300.23 65.208C300.822 64.216 301.63 63.44 302.654 62.88C303.678 62.32 304.846 62.04 306.158 62.04C307.486 62.04 308.662 62.32 309.686 62.88C310.726 63.44 311.534 64.208 312.11 65.184C312.702 66.16 312.998 67.296 312.998 68.592C312.998 69.856 312.702 70.984 312.11 71.976C311.534 72.968 310.726 73.752 309.686 74.328C308.662 74.888 307.486 75.168 306.158 75.168ZM306.158 72.6C306.894 72.6 307.55 72.44 308.126 72.12C308.702 71.8 309.15 71.336 309.47 70.728C309.806 70.12 309.974 69.408 309.974 68.592C309.974 67.76 309.806 67.048 309.47 66.456C309.15 65.848 308.702 65.384 308.126 65.064C307.55 64.744 306.902 64.584 306.182 64.584C305.446 64.584 304.79 64.744 304.214 65.064C303.654 65.384 303.206 65.848 302.87 66.456C302.534 67.048 302.366 67.76 302.366 68.592C302.366 69.408 302.534 70.12 302.87 70.728C303.206 71.336 303.654 71.8 304.214 72.12C304.79 72.44 305.438 72.6 306.158 72.6ZM315.098 64.464L316.49 59.136L316.898 60.936C316.338 60.936 315.866 60.76 315.482 60.408C315.114 60.056 314.93 59.584 314.93 58.992C314.93 58.4 315.114 57.928 315.482 57.576C315.866 57.208 316.33 57.024 316.874 57.024C317.434 57.024 317.898 57.208 318.266 57.576C318.634 57.944 318.818 58.416 318.818 58.992C318.818 59.168 318.802 59.352 318.77 59.544C318.754 59.72 318.706 59.928 318.626 60.168C318.562 60.392 318.45 60.688 318.29 61.056L317.042 64.464H315.098ZM320.186 64.464L321.578 59.136L321.986 60.936C321.426 60.936 320.954 60.76 320.57 60.408C320.202 60.056 320.018 59.584 320.018 58.992C320.018 58.4 320.202 57.928 320.57 57.576C320.954 57.208 321.418 57.024 321.962 57.024C322.522 57.024 322.986 57.208 323.354 57.576C323.722 57.944 323.906 58.416 323.906 58.992C323.906 59.168 323.89 59.352 323.858 59.544C323.842 59.72 323.794 59.928 323.714 60.168C323.65 60.392 323.538 60.688 323.378 61.056L322.13 64.464H320.186ZM338.724 75L331.38 58.2H334.764L341.316 73.392H339.372L345.996 58.2H349.116L341.796 75H338.724ZM350.718 75V62.184H353.718V75H350.718ZM352.23 60.072C351.67 60.072 351.206 59.896 350.838 59.544C350.486 59.192 350.31 58.768 350.31 58.272C350.31 57.76 350.486 57.336 350.838 57C351.206 56.648 351.67 56.472 352.23 56.472C352.79 56.472 353.246 56.64 353.598 56.976C353.966 57.296 354.15 57.704 354.15 58.2C354.15 58.728 353.974 59.176 353.622 59.544C353.27 59.896 352.806 60.072 352.23 60.072ZM363.536 75.168C362.192 75.168 360.992 74.888 359.936 74.328C358.896 73.752 358.08 72.968 357.488 71.976C356.896 70.984 356.6 69.856 356.6 68.592C356.6 67.312 356.896 66.184 357.488 65.208C358.08 64.216 358.896 63.44 359.936 62.88C360.992 62.32 362.192 62.04 363.536 62.04C364.784 62.04 365.88 62.296 366.824 62.808C367.784 63.304 368.512 64.04 369.008 65.016L366.704 66.36C366.32 65.752 365.848 65.304 365.288 65.016C364.744 64.728 364.152 64.584 363.512 64.584C362.776 64.584 362.112 64.744 361.52 65.064C360.928 65.384 360.464 65.848 360.128 66.456C359.792 67.048 359.624 67.76 359.624 68.592C359.624 69.424 359.792 70.144 360.128 70.752C360.464 71.344 360.928 71.8 361.52 72.12C362.112 72.44 362.776 72.6 363.512 72.6C364.152 72.6 364.744 72.456 365.288 72.168C365.848 71.88 366.32 71.432 366.704 70.824L369.008 72.168C368.512 73.128 367.784 73.872 366.824 74.4C365.88 74.912 364.784 75.168 363.536 75.168ZM376.589 75.168C375.181 75.168 374.093 74.808 373.325 74.088C372.557 73.352 372.173 72.272 372.173 70.848V59.352H375.173V70.776C375.173 71.384 375.325 71.856 375.629 72.192C375.949 72.528 376.389 72.696 376.949 72.696C377.621 72.696 378.181 72.52 378.629 72.168L379.469 74.304C379.117 74.592 378.685 74.808 378.173 74.952C377.661 75.096 377.133 75.168 376.589 75.168ZM370.061 64.68V62.28H378.605V64.68H370.061ZM387.275 75.168C385.963 75.168 384.795 74.888 383.771 74.328C382.747 73.752 381.939 72.968 381.347 71.976C380.755 70.984 380.459 69.856 380.459 68.592C380.459 67.312 380.755 66.184 381.347 65.208C381.939 64.216 382.747 63.44 383.771 62.88C384.795 62.32 385.963 62.04 387.275 62.04C388.603 62.04 389.779 62.32 390.803 62.88C391.843 63.44 392.651 64.208 393.227 65.184C393.819 66.16 394.115 67.296 394.115 68.592C394.115 69.856 393.819 70.984 393.227 71.976C392.651 72.968 391.843 73.752 390.803 74.328C389.779 74.888 388.603 75.168 387.275 75.168ZM387.275 72.6C388.011 72.6 388.667 72.44 389.243 72.12C389.819 71.8 390.267 71.336 390.587 70.728C390.923 70.12 391.091 69.408 391.091 68.592C391.091 67.76 390.923 67.048 390.587 66.456C390.267 65.848 389.819 65.384 389.243 65.064C388.667 64.744 388.019 64.584 387.299 64.584C386.563 64.584 385.907 64.744 385.331 65.064C384.771 65.384 384.323 65.848 383.987 66.456C383.651 67.048 383.483 67.76 383.483 68.592C383.483 69.408 383.651 70.12 383.987 70.728C384.323 71.336 384.771 71.8 385.331 72.12C385.907 72.44 386.555 72.6 387.275 72.6ZM396.984 75V62.184H399.84V65.712L399.504 64.68C399.888 63.816 400.488 63.16 401.304 62.712C402.136 62.264 403.168 62.04 404.4 62.04V64.896C404.272 64.864 404.152 64.848 404.04 64.848C403.928 64.832 403.816 64.824 403.704 64.824C402.568 64.824 401.664 65.16 400.992 65.832C400.32 66.488 399.984 67.472 399.984 68.784V75H396.984Z" fill="black"/>
</svg>
