<svg width="76" height="76" viewBox="0 0 76 76" fill="none" xmlns="http://www.w3.org/2000/svg">
<circle cx="38" cy="38" r="36.5" stroke="#22D4FD" stroke-width="3"/>
<path d="M12.5 42.5111L37.8388 11.1965C38.4316 10.4639 39.6162 10.8831 39.6162 11.8256V22.8556V40.9V64.6128C39.6162 65.4999 40.6854 65.9478 41.3176 65.3256L64.5 42.5111" stroke="#22D4FD" stroke-width="2"/>
<path d="M32.55 45.74C31.83 45.74 31.17 45.17 30.57 44.03C29.99 42.89 29.7 41.48 29.7 39.8C29.7 36.98 30.64 34.72 32.52 33.02C34.42 31.32 36.93 30.47 40.05 30.47C43.19 30.47 45.66 31.32 47.46 33.02C49.28 34.72 50.19 37.02 50.19 39.92C50.19 41.48 49.87 42.79 49.23 43.85C48.61 44.91 47.84 45.44 46.92 45.44C46.1 45.44 45.6 44.87 45.42 43.73C46.4 43.35 47.13 42.75 47.61 41.93C48.11 41.11 48.36 40.24 48.36 39.32C48.36 37.44 47.61 35.9 46.11 34.7C44.63 33.52 42.69 32.93 40.29 32.93C37.91 32.93 35.85 33.53 34.11 34.73C32.39 35.93 31.53 37.6 31.53 39.74C31.53 41.34 32.01 42.63 32.97 43.61C35.47 43.57 37.49 43.5 39.03 43.4C39.09 43.74 39.12 44.1 39.12 44.48C39.12 45.46 38.74 45.95 37.98 45.95L36.06 45.86C34.78 45.78 33.61 45.74 32.55 45.74Z" fill="#22D4FD"/>
</svg>
