<svg width="362" height="431" viewBox="0 0 362 431" fill="none" xmlns="http://www.w3.org/2000/svg">
<rect x="0.173523" y="328.228" width="361.826" height="102.087" rx="16" fill="#22D4FD"/>
<path d="M127.757 393.272V365.272H140.877C144.237 365.272 146.797 365.938 148.557 367.272C150.317 368.578 151.197 370.338 151.197 372.552C151.197 374.045 150.85 375.325 150.157 376.392C149.464 377.432 148.53 378.245 147.357 378.832C146.21 379.392 144.957 379.672 143.597 379.672L144.317 378.232C145.89 378.232 147.304 378.525 148.557 379.112C149.81 379.672 150.797 380.498 151.517 381.592C152.264 382.685 152.637 384.045 152.637 385.672C152.637 388.072 151.717 389.938 149.877 391.272C148.037 392.605 145.304 393.272 141.677 393.272H127.757ZM132.957 389.192H141.357C143.304 389.192 144.797 388.872 145.837 388.232C146.877 387.592 147.397 386.565 147.397 385.152C147.397 383.765 146.877 382.752 145.837 382.112C144.797 381.445 143.304 381.112 141.357 381.112H132.557V377.072H140.317C142.13 377.072 143.517 376.752 144.477 376.112C145.464 375.472 145.957 374.512 145.957 373.232C145.957 371.925 145.464 370.952 144.477 370.312C143.517 369.672 142.13 369.352 140.317 369.352H132.957V389.192ZM158.187 393.272V365.272H162.467L174.707 385.712H172.467L184.507 365.272H188.787L188.827 393.272H183.907L183.867 372.992H184.907L174.667 390.072H172.347L161.947 372.992H163.147V393.272H158.187ZM202.794 393.272L193.514 365.272H198.914L207.194 390.592H204.514L213.114 365.272H217.914L226.274 390.592H223.674L232.154 365.272H237.114L227.834 393.272H222.314L214.674 370.432H216.114L208.354 393.272H202.794Z" fill="black"/>
<rect x="0.173523" y="328.228" width="361.826" height="102.087" rx="16" stroke="#22D4FD"/>
<rect x="0.173523" y="164.114" width="361.826" height="102.087" rx="16" fill="#22D4FD"/>
<path d="M132.977 229.158L145.577 201.158H150.697L163.337 229.158H157.897L147.057 203.918H149.137L138.337 229.158H132.977ZM138.777 222.678L140.177 218.598H155.297L156.697 222.678H138.777ZM175.067 229.438C173.254 229.438 171.654 229.104 170.267 228.438C168.88 227.744 167.8 226.704 167.027 225.318C166.254 223.904 165.867 222.131 165.867 219.998V207.798H170.867V219.318C170.867 221.238 171.294 222.678 172.147 223.638C173.027 224.571 174.267 225.038 175.867 225.038C177.04 225.038 178.054 224.798 178.907 224.318C179.787 223.838 180.467 223.118 180.947 222.158C181.454 221.198 181.707 220.011 181.707 218.598V207.798H186.707V229.158H181.947V223.398L182.787 225.158C182.067 226.544 181.014 227.611 179.627 228.358C178.24 229.078 176.72 229.438 175.067 229.438ZM202.293 229.438C200.24 229.438 198.387 228.984 196.733 228.078C195.107 227.144 193.827 225.864 192.893 224.238C191.96 222.611 191.493 220.691 191.493 218.478C191.493 216.264 191.96 214.344 192.893 212.718C193.827 211.091 195.107 209.824 196.733 208.918C198.387 208.011 200.24 207.558 202.293 207.558C204.08 207.558 205.68 207.958 207.093 208.758C208.507 209.531 209.627 210.718 210.453 212.318C211.28 213.918 211.693 215.971 211.693 218.478C211.693 220.958 211.293 223.011 210.493 224.638C209.693 226.238 208.587 227.438 207.173 228.238C205.76 229.038 204.133 229.438 202.293 229.438ZM202.893 225.158C204.093 225.158 205.16 224.891 206.093 224.358C207.053 223.824 207.813 223.051 208.373 222.038C208.96 221.024 209.253 219.838 209.253 218.478C209.253 217.091 208.96 215.904 208.373 214.918C207.813 213.904 207.053 213.131 206.093 212.598C205.16 212.064 204.093 211.798 202.893 211.798C201.693 211.798 200.613 212.064 199.653 212.598C198.72 213.131 197.96 213.904 197.373 214.918C196.813 215.904 196.533 217.091 196.533 218.478C196.533 219.838 196.813 221.024 197.373 222.038C197.96 223.051 198.72 223.824 199.653 224.358C200.613 224.891 201.693 225.158 202.893 225.158ZM209.373 229.158V224.118L209.573 218.438L209.173 212.758V199.478H214.133V229.158H209.373ZM220.714 229.158V207.798H225.714V229.158H220.714ZM223.234 204.278C222.301 204.278 221.528 203.984 220.914 203.398C220.328 202.811 220.034 202.104 220.034 201.278C220.034 200.424 220.328 199.718 220.914 199.158C221.528 198.571 222.301 198.278 223.234 198.278C224.168 198.278 224.928 198.558 225.514 199.118C226.128 199.651 226.434 200.331 226.434 201.158C226.434 202.038 226.141 202.784 225.554 203.398C224.968 203.984 224.194 204.278 223.234 204.278Z" fill="black"/>
<rect x="0.173523" y="164.114" width="361.826" height="102.087" rx="16" stroke="#22D4FD"/>
<rect x="0.173523" width="361.826" height="102.087" rx="16" fill="#22D4FD"/>
<path d="M84.7296 63.5434V35.5434H89.0096L101.25 55.9834H99.0096L111.05 35.5434H115.33L115.37 63.5434H110.45L110.41 43.2634H111.45L101.21 60.3434H98.8896L88.4896 43.2634H89.6896V63.5434H84.7296ZM132.493 63.8234C130.119 63.8234 128.039 63.3567 126.253 62.4234C124.493 61.4634 123.119 60.1567 122.133 58.5034C121.173 56.85 120.693 54.97 120.693 52.8634C120.693 50.73 121.159 48.85 122.093 47.2234C123.053 45.57 124.359 44.2767 126.013 43.3434C127.693 42.41 129.599 41.9434 131.733 41.9434C133.813 41.9434 135.666 42.3967 137.293 43.3034C138.919 44.21 140.199 45.49 141.133 47.1434C142.066 48.7967 142.533 50.7434 142.533 52.9834C142.533 53.1967 142.519 53.4367 142.493 53.7034C142.493 53.97 142.479 54.2234 142.453 54.4634H124.653V51.1434H139.813L137.853 52.1834C137.879 50.9567 137.626 49.8767 137.093 48.9434C136.559 48.01 135.826 47.2767 134.893 46.7434C133.986 46.21 132.933 45.9434 131.733 45.9434C130.506 45.9434 129.426 46.21 128.493 46.7434C127.586 47.2767 126.866 48.0234 126.333 48.9834C125.826 49.9167 125.573 51.0234 125.573 52.3034V53.1034C125.573 54.3834 125.866 55.5167 126.453 56.5034C127.039 57.49 127.866 58.25 128.933 58.7834C129.999 59.3167 131.226 59.5834 132.613 59.5834C133.813 59.5834 134.893 59.3967 135.853 59.0234C136.813 58.65 137.666 58.0634 138.413 57.2634L141.093 60.3434C140.133 61.4634 138.919 62.33 137.453 62.9434C136.013 63.53 134.359 63.8234 132.493 63.8234ZM147.336 63.5434V42.1834H152.096V48.0634L151.536 46.3434C152.176 44.9034 153.176 43.81 154.536 43.0634C155.922 42.3167 157.642 41.9434 159.696 41.9434V46.7034C159.482 46.65 159.282 46.6234 159.096 46.6234C158.909 46.5967 158.722 46.5834 158.536 46.5834C156.642 46.5834 155.136 47.1434 154.016 48.2634C152.896 49.3567 152.336 50.9967 152.336 53.1834V63.5434H147.336ZM173.542 63.8234C171.302 63.8234 169.302 63.3567 167.542 62.4234C165.808 61.4634 164.448 60.1567 163.462 58.5034C162.475 56.85 161.982 54.97 161.982 52.8634C161.982 50.73 162.475 48.85 163.462 47.2234C164.448 45.57 165.808 44.2767 167.542 43.3434C169.302 42.41 171.302 41.9434 173.542 41.9434C175.622 41.9434 177.448 42.37 179.022 43.2234C180.622 44.05 181.835 45.2767 182.662 46.9034L178.822 49.1434C178.182 48.13 177.395 47.3834 176.462 46.9034C175.555 46.4234 174.568 46.1834 173.502 46.1834C172.275 46.1834 171.168 46.45 170.182 46.9834C169.195 47.5167 168.422 48.29 167.862 49.3034C167.302 50.29 167.022 51.4767 167.022 52.8634C167.022 54.25 167.302 55.45 167.862 56.4634C168.422 57.45 169.195 58.21 170.182 58.7434C171.168 59.2767 172.275 59.5434 173.502 59.5434C174.568 59.5434 175.555 59.3034 176.462 58.8234C177.395 58.3434 178.182 57.5967 178.822 56.5834L182.662 58.8234C181.835 60.4234 180.622 61.6634 179.022 62.5434C177.448 63.3967 175.622 63.8234 173.542 63.8234ZM196.711 63.8234C194.338 63.8234 192.258 63.3567 190.471 62.4234C188.711 61.4634 187.338 60.1567 186.351 58.5034C185.391 56.85 184.911 54.97 184.911 52.8634C184.911 50.73 185.378 48.85 186.311 47.2234C187.271 45.57 188.578 44.2767 190.231 43.3434C191.911 42.41 193.818 41.9434 195.951 41.9434C198.031 41.9434 199.885 42.3967 201.511 43.3034C203.138 44.21 204.418 45.49 205.351 47.1434C206.285 48.7967 206.751 50.7434 206.751 52.9834C206.751 53.1967 206.738 53.4367 206.711 53.7034C206.711 53.97 206.698 54.2234 206.671 54.4634H188.871V51.1434H204.031L202.071 52.1834C202.098 50.9567 201.845 49.8767 201.311 48.9434C200.778 48.01 200.045 47.2767 199.111 46.7434C198.205 46.21 197.151 45.9434 195.951 45.9434C194.725 45.9434 193.645 46.21 192.711 46.7434C191.805 47.2767 191.085 48.0234 190.551 48.9834C190.045 49.9167 189.791 51.0234 189.791 52.3034V53.1034C189.791 54.3834 190.085 55.5167 190.671 56.5034C191.258 57.49 192.085 58.25 193.151 58.7834C194.218 59.3167 195.445 59.5834 196.831 59.5834C198.031 59.5834 199.111 59.3967 200.071 59.0234C201.031 58.65 201.885 58.0634 202.631 57.2634L205.311 60.3434C204.351 61.4634 203.138 62.33 201.671 62.9434C200.231 63.53 198.578 63.8234 196.711 63.8234ZM220.594 63.8234C218.541 63.8234 216.688 63.37 215.034 62.4634C213.408 61.53 212.128 60.25 211.194 58.6234C210.261 56.9967 209.794 55.0767 209.794 52.8634C209.794 50.65 210.261 48.73 211.194 47.1034C212.128 45.4767 213.408 44.21 215.034 43.3034C216.688 42.3967 218.541 41.9434 220.594 41.9434C222.381 41.9434 223.981 42.3434 225.394 43.1434C226.808 43.9167 227.928 45.1034 228.754 46.7034C229.581 48.3034 229.994 50.3567 229.994 52.8634C229.994 55.3434 229.594 57.3967 228.794 59.0234C227.994 60.6234 226.888 61.8234 225.474 62.6234C224.061 63.4234 222.434 63.8234 220.594 63.8234ZM221.194 59.5434C222.394 59.5434 223.461 59.2767 224.394 58.7434C225.354 58.21 226.114 57.4367 226.674 56.4234C227.261 55.41 227.554 54.2234 227.554 52.8634C227.554 51.4767 227.261 50.29 226.674 49.3034C226.114 48.29 225.354 47.5167 224.394 46.9834C223.461 46.45 222.394 46.1834 221.194 46.1834C219.994 46.1834 218.914 46.45 217.954 46.9834C217.021 47.5167 216.261 48.29 215.674 49.3034C215.114 50.29 214.834 51.4767 214.834 52.8634C214.834 54.2234 215.114 55.41 215.674 56.4234C216.261 57.4367 217.021 58.21 217.954 58.7434C218.914 59.2767 219.994 59.5434 221.194 59.5434ZM227.674 63.5434V58.5034L227.874 52.8234L227.474 47.1434V33.8634H232.434V63.5434H227.674ZM249.055 63.8234C246.682 63.8234 244.602 63.3567 242.815 62.4234C241.055 61.4634 239.682 60.1567 238.695 58.5034C237.735 56.85 237.255 54.97 237.255 52.8634C237.255 50.73 237.722 48.85 238.655 47.2234C239.615 45.57 240.922 44.2767 242.575 43.3434C244.255 42.41 246.162 41.9434 248.295 41.9434C250.375 41.9434 252.229 42.3967 253.855 43.3034C255.482 44.21 256.762 45.49 257.695 47.1434C258.629 48.7967 259.095 50.7434 259.095 52.9834C259.095 53.1967 259.082 53.4367 259.055 53.7034C259.055 53.97 259.042 54.2234 259.015 54.4634H241.215V51.1434H256.375L254.415 52.1834C254.442 50.9567 254.189 49.8767 253.655 48.9434C253.122 48.01 252.389 47.2767 251.455 46.7434C250.549 46.21 249.495 45.9434 248.295 45.9434C247.069 45.9434 245.989 46.21 245.055 46.7434C244.149 47.2767 243.429 48.0234 242.895 48.9834C242.389 49.9167 242.135 51.0234 242.135 52.3034V53.1034C242.135 54.3834 242.429 55.5167 243.015 56.5034C243.602 57.49 244.429 58.25 245.495 58.7834C246.562 59.3167 247.789 59.5834 249.175 59.5834C250.375 59.5834 251.455 59.3967 252.415 59.0234C253.375 58.65 254.229 58.0634 254.975 57.2634L257.655 60.3434C256.695 61.4634 255.482 62.33 254.015 62.9434C252.575 63.53 250.922 63.8234 249.055 63.8234ZM270.498 63.8234C268.711 63.8234 266.991 63.5967 265.338 63.1434C263.711 62.6634 262.418 62.09 261.458 61.4234L263.378 57.6234C264.338 58.2367 265.485 58.7434 266.818 59.1434C268.151 59.5434 269.485 59.7434 270.818 59.7434C272.391 59.7434 273.525 59.53 274.218 59.1034C274.938 58.6767 275.298 58.1034 275.298 57.3834C275.298 56.7967 275.058 56.3567 274.578 56.0634C274.098 55.7434 273.471 55.5034 272.698 55.3434C271.925 55.1834 271.058 55.0367 270.098 54.9034C269.165 54.77 268.218 54.5967 267.258 54.3834C266.325 54.1434 265.471 53.81 264.698 53.3834C263.925 52.93 263.298 52.33 262.818 51.5834C262.338 50.8367 262.098 49.85 262.098 48.6234C262.098 47.2634 262.485 46.09 263.258 45.1034C264.031 44.09 265.111 43.3167 266.498 42.7834C267.911 42.2234 269.578 41.9434 271.498 41.9434C272.938 41.9434 274.391 42.1034 275.858 42.4234C277.325 42.7434 278.538 43.1967 279.498 43.7834L277.578 47.5834C276.565 46.97 275.538 46.5567 274.498 46.3434C273.485 46.1034 272.471 45.9834 271.458 45.9834C269.938 45.9834 268.805 46.21 268.058 46.6634C267.338 47.1167 266.978 47.69 266.978 48.3834C266.978 49.0234 267.218 49.5034 267.698 49.8234C268.178 50.1434 268.805 50.3967 269.578 50.5834C270.351 50.77 271.205 50.93 272.138 51.0634C273.098 51.17 274.045 51.3434 274.978 51.5834C275.911 51.8234 276.765 52.1567 277.538 52.5834C278.338 52.9834 278.978 53.5567 279.458 54.3034C279.938 55.05 280.178 56.0234 280.178 57.2234C280.178 58.5567 279.778 59.7167 278.978 60.7034C278.205 61.69 277.098 62.4634 275.658 63.0234C274.218 63.5567 272.498 63.8234 270.498 63.8234Z" fill="black"/>
<rect x="0.173523" width="361.826" height="102.087" rx="16" stroke="#22D4FD"/>
</svg>
