<svg width="597" height="110" viewBox="0 0 597 110" fill="none" xmlns="http://www.w3.org/2000/svg">
<rect x="2.5" y="24.5" width="566.323" height="83" rx="7.5" fill="#22D4FD" stroke="#22D4FD" stroke-width="5" stroke-linejoin="round"/>
<rect x="27.5" y="2.5" width="566.323" height="83" rx="7.5" stroke="#22D4FD" stroke-width="5" stroke-linejoin="round"/>
<path d="M28.8506 78L38.9306 55.6H43.0266L53.1386 78H48.7866L40.1146 57.808H41.7786L33.1386 78H28.8506ZM33.4906 72.816L34.6106 69.552H46.7066L47.8266 72.816H33.4906ZM61.8791 78.224C60.0018 78.224 58.5511 77.744 57.5271 76.784C56.5031 75.8027 55.9911 74.3627 55.9911 72.464V57.136H59.9911V72.368C59.9911 73.1787 60.1938 73.808 60.5991 74.256C61.0258 74.704 61.6124 74.928 62.3591 74.928C63.2551 74.928 64.0018 74.6933 64.5991 74.224L65.7191 77.072C65.2498 77.456 64.6738 77.744 63.9911 77.936C63.3084 78.128 62.6044 78.224 61.8791 78.224ZM53.1751 64.24V61.04H64.5671V64.24H53.1751ZM76.2416 78.224C74.7909 78.224 73.5109 77.9573 72.4016 77.424C71.2923 76.8693 70.4283 76.0373 69.8096 74.928C69.1909 73.7973 68.8816 72.3787 68.8816 70.672V60.912H72.8816V70.128C72.8816 71.664 73.2229 72.816 73.9056 73.584C74.6096 74.3307 75.6016 74.704 76.8816 74.704C77.8203 74.704 78.6309 74.512 79.3136 74.128C80.0176 73.744 80.5616 73.168 80.9456 72.4C81.3509 71.632 81.5536 70.6827 81.5536 69.552V60.912H85.5536V78H81.7456V73.392L82.4176 74.8C81.8416 75.9093 80.9989 76.7627 79.8896 77.36C78.7803 77.936 77.5643 78.224 76.2416 78.224ZM101.319 78V74.544L101.095 73.808V67.76C101.095 66.5867 100.743 65.68 100.039 65.04C99.3348 64.3787 98.2682 64.048 96.8388 64.048C95.8788 64.048 94.9295 64.1973 93.9908 64.496C93.0735 64.7947 92.2948 65.2107 91.6548 65.744L90.0868 62.832C91.0042 62.128 92.0922 61.6053 93.3508 61.264C94.6308 60.9013 95.9535 60.72 97.3188 60.72C99.7935 60.72 101.703 61.3173 103.047 62.512C104.412 63.6853 105.095 65.5093 105.095 67.984V78H101.319ZM95.9428 78.224C94.6628 78.224 93.5428 78.0107 92.5828 77.584C91.6228 77.136 90.8762 76.528 90.3428 75.76C89.8308 74.9707 89.5748 74.0853 89.5748 73.104C89.5748 72.144 89.7988 71.28 90.2468 70.512C90.7162 69.744 91.4735 69.136 92.5188 68.688C93.5642 68.24 94.9508 68.016 96.6788 68.016H101.639V70.672H96.9668C95.6015 70.672 94.6842 70.896 94.2148 71.344C93.7455 71.7707 93.5108 72.304 93.5108 72.944C93.5108 73.6693 93.7988 74.2453 94.3748 74.672C94.9508 75.0987 95.7508 75.312 96.7748 75.312C97.7562 75.312 98.6308 75.088 99.3988 74.64C100.188 74.192 100.754 73.5307 101.095 72.656L101.767 75.056C101.383 76.0587 100.69 76.8373 99.6868 77.392C98.7055 77.9467 97.4575 78.224 95.9428 78.224ZM110.228 78V54.256H114.228V78H110.228ZM119.478 78V60.912H123.478V78H119.478ZM121.494 58.096C120.748 58.096 120.129 57.8613 119.638 57.392C119.169 56.9227 118.934 56.3573 118.934 55.696C118.934 55.0133 119.169 54.448 119.638 54C120.129 53.5307 120.748 53.296 121.494 53.296C122.241 53.296 122.849 53.52 123.318 53.968C123.809 54.3947 124.054 54.9387 124.054 55.6C124.054 56.304 123.82 56.9013 123.35 57.392C122.881 57.8613 122.262 58.096 121.494 58.096ZM127.32 78V75.472L137.848 62.736L138.584 64.112H127.512V60.912H141.784V63.44L131.256 76.176L130.456 74.8H142.072V78H127.32ZM153.542 78.224C151.643 78.224 149.979 77.8507 148.55 77.104C147.142 76.336 146.043 75.2907 145.254 73.968C144.486 72.6453 144.102 71.1413 144.102 69.456C144.102 67.7493 144.475 66.2453 145.222 64.944C145.99 63.6213 147.035 62.5867 148.358 61.84C149.702 61.0933 151.227 60.72 152.934 60.72C154.598 60.72 156.08 61.0827 157.382 61.808C158.683 62.5333 159.707 63.5573 160.454 64.88C161.2 66.2027 161.574 67.76 161.574 69.552C161.574 69.7227 161.563 69.9147 161.542 70.128C161.542 70.3413 161.531 70.544 161.51 70.736H147.27V68.08H159.398L157.83 68.912C157.851 67.9307 157.648 67.0667 157.222 66.32C156.795 65.5733 156.208 64.9867 155.462 64.56C154.736 64.1333 153.894 63.92 152.934 63.92C151.952 63.92 151.088 64.1333 150.342 64.56C149.616 64.9867 149.04 65.584 148.614 66.352C148.208 67.0987 148.006 67.984 148.006 69.008V69.648C148.006 70.672 148.24 71.5787 148.71 72.368C149.179 73.1573 149.84 73.7653 150.694 74.192C151.547 74.6187 152.528 74.832 153.638 74.832C154.598 74.832 155.462 74.6827 156.23 74.384C156.998 74.0853 157.68 73.616 158.278 72.976L160.422 75.44C159.654 76.336 158.683 77.0293 157.51 77.52C156.358 77.9893 155.035 78.224 153.542 78.224ZM183.956 60.72C185.321 60.72 186.537 60.9867 187.604 61.52C188.692 62.0533 189.545 62.8747 190.164 63.984C190.782 65.072 191.092 66.48 191.092 68.208V78H187.092V68.72C187.092 67.2053 186.729 66.0747 186.004 65.328C185.3 64.5813 184.308 64.208 183.028 64.208C182.089 64.208 181.257 64.4 180.532 64.784C179.806 65.168 179.241 65.744 178.836 66.512C178.452 67.2587 178.26 68.208 178.26 69.36V78H174.26V60.912H178.068V65.52L177.396 64.112C177.993 63.024 178.857 62.192 179.988 61.616C181.14 61.0187 182.462 60.72 183.956 60.72ZM203.877 78.224C202.128 78.224 200.57 77.8507 199.205 77.104C197.84 76.336 196.762 75.2907 195.973 73.968C195.184 72.6453 194.789 71.1413 194.789 69.456C194.789 67.7493 195.184 66.2453 195.973 64.944C196.762 63.6213 197.84 62.5867 199.205 61.84C200.57 61.0933 202.128 60.72 203.877 60.72C205.648 60.72 207.216 61.0933 208.581 61.84C209.968 62.5867 211.045 63.6107 211.813 64.912C212.602 66.2133 212.997 67.728 212.997 69.456C212.997 71.1413 212.602 72.6453 211.813 73.968C211.045 75.2907 209.968 76.336 208.581 77.104C207.216 77.8507 205.648 78.224 203.877 78.224ZM203.877 74.8C204.858 74.8 205.733 74.5867 206.501 74.16C207.269 73.7333 207.866 73.1147 208.293 72.304C208.741 71.4933 208.965 70.544 208.965 69.456C208.965 68.3467 208.741 67.3973 208.293 66.608C207.866 65.7973 207.269 65.1787 206.501 64.752C205.733 64.3253 204.869 64.112 203.909 64.112C202.928 64.112 202.053 64.3253 201.285 64.752C200.538 65.1787 199.941 65.7973 199.493 66.608C199.045 67.3973 198.821 68.3467 198.821 69.456C198.821 70.544 199.045 71.4933 199.493 72.304C199.941 73.1147 200.538 73.7333 201.285 74.16C202.053 74.5867 202.917 74.8 203.877 74.8ZM222.102 78.224C220.673 78.224 219.297 78.0427 217.974 77.68C216.673 77.296 215.638 76.8373 214.87 76.304L216.406 73.264C217.174 73.7547 218.091 74.16 219.158 74.48C220.225 74.8 221.291 74.96 222.358 74.96C223.617 74.96 224.523 74.7893 225.078 74.448C225.654 74.1067 225.942 73.648 225.942 73.072C225.942 72.6027 225.75 72.2507 225.366 72.016C224.982 71.76 224.481 71.568 223.862 71.44C223.243 71.312 222.55 71.1947 221.782 71.088C221.035 70.9813 220.278 70.8427 219.51 70.672C218.763 70.48 218.081 70.2133 217.462 69.872C216.843 69.5093 216.342 69.0293 215.958 68.432C215.574 67.8347 215.382 67.0453 215.382 66.064C215.382 64.976 215.691 64.0373 216.31 63.248C216.929 62.4373 217.793 61.8187 218.902 61.392C220.033 60.944 221.366 60.72 222.902 60.72C224.054 60.72 225.217 60.848 226.39 61.104C227.563 61.36 228.534 61.7227 229.302 62.192L227.766 65.232C226.955 64.7413 226.134 64.4107 225.302 64.24C224.491 64.048 223.681 63.952 222.87 63.952C221.654 63.952 220.747 64.1333 220.15 64.496C219.574 64.8587 219.286 65.3173 219.286 65.872C219.286 66.384 219.478 66.768 219.862 67.024C220.246 67.28 220.747 67.4827 221.366 67.632C221.985 67.7813 222.667 67.9093 223.414 68.016C224.182 68.1013 224.939 68.24 225.686 68.432C226.433 68.624 227.115 68.8907 227.734 69.232C228.374 69.552 228.886 70.0107 229.27 70.608C229.654 71.2053 229.846 71.984 229.846 72.944C229.846 74.0107 229.526 74.9387 228.886 75.728C228.267 76.5173 227.382 77.136 226.23 77.584C225.078 78.0107 223.702 78.224 222.102 78.224ZM238.571 78.224C237.142 78.224 235.766 78.0427 234.443 77.68C233.142 77.296 232.107 76.8373 231.339 76.304L232.875 73.264C233.643 73.7547 234.56 74.16 235.627 74.48C236.694 74.8 237.76 74.96 238.827 74.96C240.086 74.96 240.992 74.7893 241.547 74.448C242.123 74.1067 242.411 73.648 242.411 73.072C242.411 72.6027 242.219 72.2507 241.835 72.016C241.451 71.76 240.95 71.568 240.331 71.44C239.712 71.312 239.019 71.1947 238.251 71.088C237.504 70.9813 236.747 70.8427 235.979 70.672C235.232 70.48 234.55 70.2133 233.931 69.872C233.312 69.5093 232.811 69.0293 232.427 68.432C232.043 67.8347 231.851 67.0453 231.851 66.064C231.851 64.976 232.16 64.0373 232.779 63.248C233.398 62.4373 234.262 61.8187 235.371 61.392C236.502 60.944 237.835 60.72 239.371 60.72C240.523 60.72 241.686 60.848 242.859 61.104C244.032 61.36 245.003 61.7227 245.771 62.192L244.235 65.232C243.424 64.7413 242.603 64.4107 241.771 64.24C240.96 64.048 240.15 63.952 239.339 63.952C238.123 63.952 237.216 64.1333 236.619 64.496C236.043 64.8587 235.755 65.3173 235.755 65.872C235.755 66.384 235.947 66.768 236.331 67.024C236.715 67.28 237.216 67.4827 237.835 67.632C238.454 67.7813 239.136 67.9093 239.883 68.016C240.651 68.1013 241.408 68.24 242.155 68.432C242.902 68.624 243.584 68.8907 244.203 69.232C244.843 69.552 245.355 70.0107 245.739 70.608C246.123 71.2053 246.315 71.984 246.315 72.944C246.315 74.0107 245.995 74.9387 245.355 75.728C244.736 76.5173 243.851 77.136 242.699 77.584C241.547 78.0107 240.171 78.224 238.571 78.224ZM257.44 78.224C255.69 78.224 254.133 77.8507 252.768 77.104C251.402 76.336 250.325 75.2907 249.536 73.968C248.746 72.6453 248.352 71.1413 248.352 69.456C248.352 67.7493 248.746 66.2453 249.536 64.944C250.325 63.6213 251.402 62.5867 252.768 61.84C254.133 61.0933 255.69 60.72 257.44 60.72C259.21 60.72 260.778 61.0933 262.144 61.84C263.53 62.5867 264.608 63.6107 265.376 64.912C266.165 66.2133 266.56 67.728 266.56 69.456C266.56 71.1413 266.165 72.6453 265.376 73.968C264.608 75.2907 263.53 76.336 262.144 77.104C260.778 77.8507 259.21 78.224 257.44 78.224ZM257.44 74.8C258.421 74.8 259.296 74.5867 260.064 74.16C260.832 73.7333 261.429 73.1147 261.856 72.304C262.304 71.4933 262.528 70.544 262.528 69.456C262.528 68.3467 262.304 67.3973 261.856 66.608C261.429 65.7973 260.832 65.1787 260.064 64.752C259.296 64.3253 258.432 64.112 257.472 64.112C256.49 64.112 255.616 64.3253 254.848 64.752C254.101 65.1787 253.504 65.7973 253.056 66.608C252.608 67.3973 252.384 68.3467 252.384 69.456C252.384 70.544 252.608 71.4933 253.056 72.304C253.504 73.1147 254.101 73.7333 254.848 74.16C255.616 74.5867 256.48 74.8 257.44 74.8ZM288.7 78.224C287.25 78.224 285.959 77.904 284.828 77.264C283.698 76.624 282.802 75.664 282.14 74.384C281.5 73.0827 281.18 71.44 281.18 69.456C281.18 67.4507 281.511 65.808 282.172 64.528C282.855 63.248 283.762 62.2987 284.892 61.68C286.044 61.04 287.314 60.72 288.7 60.72C290.386 60.72 291.868 61.0827 293.148 61.808C294.45 62.5333 295.474 63.5467 296.22 64.848C296.988 66.1493 297.372 67.6853 297.372 69.456C297.372 71.2267 296.988 72.7627 296.22 74.064C295.474 75.3653 294.45 76.3893 293.148 77.136C291.868 77.8613 290.386 78.224 288.7 78.224ZM279.228 78V54.256H283.228V64.88L282.908 69.424L283.036 73.968V78H279.228ZM288.252 74.8C289.212 74.8 290.066 74.5867 290.812 74.16C291.58 73.7333 292.188 73.1147 292.636 72.304C293.084 71.4933 293.308 70.544 293.308 69.456C293.308 68.3467 293.084 67.3973 292.636 66.608C292.188 65.7973 291.58 65.1787 290.812 64.752C290.066 64.3253 289.212 64.112 288.252 64.112C287.292 64.112 286.428 64.3253 285.66 64.752C284.892 65.1787 284.284 65.7973 283.836 66.608C283.388 67.3973 283.164 68.3467 283.164 69.456C283.164 70.544 283.388 71.4933 283.836 72.304C284.284 73.1147 284.892 73.7333 285.66 74.16C286.428 74.5867 287.292 74.8 288.252 74.8ZM311.475 78V74.544L311.251 73.808V67.76C311.251 66.5867 310.899 65.68 310.195 65.04C309.491 64.3787 308.424 64.048 306.995 64.048C306.035 64.048 305.086 64.1973 304.147 64.496C303.23 64.7947 302.451 65.2107 301.811 65.744L300.243 62.832C301.16 62.128 302.248 61.6053 303.507 61.264C304.787 60.9013 306.11 60.72 307.475 60.72C309.95 60.72 311.859 61.3173 313.203 62.512C314.568 63.6853 315.251 65.5093 315.251 67.984V78H311.475ZM306.099 78.224C304.819 78.224 303.699 78.0107 302.739 77.584C301.779 77.136 301.032 76.528 300.499 75.76C299.987 74.9707 299.731 74.0853 299.731 73.104C299.731 72.144 299.955 71.28 300.403 70.512C300.872 69.744 301.63 69.136 302.675 68.688C303.72 68.24 305.107 68.016 306.835 68.016H311.795V70.672H307.123C305.758 70.672 304.84 70.896 304.371 71.344C303.902 71.7707 303.667 72.304 303.667 72.944C303.667 73.6693 303.955 74.2453 304.531 74.672C305.107 75.0987 305.907 75.312 306.931 75.312C307.912 75.312 308.787 75.088 309.555 74.64C310.344 74.192 310.91 73.5307 311.251 72.656L311.923 75.056C311.539 76.0587 310.846 76.8373 309.843 77.392C308.862 77.9467 307.614 78.224 306.099 78.224ZM330.081 60.72C331.446 60.72 332.662 60.9867 333.729 61.52C334.817 62.0533 335.67 62.8747 336.289 63.984C336.907 65.072 337.217 66.48 337.217 68.208V78H333.217V68.72C333.217 67.2053 332.854 66.0747 332.129 65.328C331.425 64.5813 330.433 64.208 329.153 64.208C328.214 64.208 327.382 64.4 326.657 64.784C325.931 65.168 325.366 65.744 324.961 66.512C324.577 67.2587 324.385 68.208 324.385 69.36V78H320.385V60.912H324.193V65.52L323.521 64.112C324.118 63.024 324.982 62.192 326.113 61.616C327.265 61.0187 328.587 60.72 330.081 60.72ZM350.162 78.224C348.37 78.224 346.77 77.8507 345.362 77.104C343.975 76.336 342.887 75.2907 342.098 73.968C341.309 72.6453 340.914 71.1413 340.914 69.456C340.914 67.7493 341.309 66.2453 342.098 64.944C342.887 63.6213 343.975 62.5867 345.362 61.84C346.77 61.0933 348.37 60.72 350.162 60.72C351.826 60.72 353.287 61.0613 354.546 61.744C355.826 62.4053 356.797 63.3867 357.458 64.688L354.386 66.48C353.874 65.6693 353.245 65.072 352.498 64.688C351.773 64.304 350.983 64.112 350.13 64.112C349.149 64.112 348.263 64.3253 347.474 64.752C346.685 65.1787 346.066 65.7973 345.618 66.608C345.17 67.3973 344.946 68.3467 344.946 69.456C344.946 70.5653 345.17 71.5253 345.618 72.336C346.066 73.1253 346.685 73.7333 347.474 74.16C348.263 74.5867 349.149 74.8 350.13 74.8C350.983 74.8 351.773 74.608 352.498 74.224C353.245 73.84 353.874 73.2427 354.386 72.432L357.458 74.224C356.797 75.504 355.826 76.496 354.546 77.2C353.287 77.8827 351.826 78.224 350.162 78.224ZM368.346 78.224C366.597 78.224 365.039 77.8507 363.674 77.104C362.309 76.336 361.231 75.2907 360.442 73.968C359.653 72.6453 359.258 71.1413 359.258 69.456C359.258 67.7493 359.653 66.2453 360.442 64.944C361.231 63.6213 362.309 62.5867 363.674 61.84C365.039 61.0933 366.597 60.72 368.346 60.72C370.117 60.72 371.685 61.0933 373.05 61.84C374.437 62.5867 375.514 63.6107 376.282 64.912C377.071 66.2133 377.466 67.728 377.466 69.456C377.466 71.1413 377.071 72.6453 376.282 73.968C375.514 75.2907 374.437 76.336 373.05 77.104C371.685 77.8507 370.117 78.224 368.346 78.224ZM368.346 74.8C369.327 74.8 370.202 74.5867 370.97 74.16C371.738 73.7333 372.335 73.1147 372.762 72.304C373.21 71.4933 373.434 70.544 373.434 69.456C373.434 68.3467 373.21 67.3973 372.762 66.608C372.335 65.7973 371.738 65.1787 370.97 64.752C370.202 64.3253 369.338 64.112 368.378 64.112C367.397 64.112 366.522 64.3253 365.754 64.752C365.007 65.1787 364.41 65.7973 363.962 66.608C363.514 67.3973 363.29 68.3467 363.29 69.456C363.29 70.544 363.514 71.4933 363.962 72.304C364.41 73.1147 365.007 73.7333 365.754 74.16C366.522 74.5867 367.386 74.8 368.346 74.8ZM397.367 78.224C395.724 78.224 394.241 77.8613 392.919 77.136C391.617 76.3893 390.593 75.3653 389.847 74.064C389.1 72.7627 388.727 71.2267 388.727 69.456C388.727 67.6853 389.1 66.1493 389.847 64.848C390.593 63.5467 391.617 62.5333 392.919 61.808C394.241 61.0827 395.724 60.72 397.367 60.72C398.796 60.72 400.076 61.04 401.207 61.68C402.337 62.2987 403.233 63.248 403.895 64.528C404.556 65.808 404.887 67.4507 404.887 69.456C404.887 71.44 404.567 73.0827 403.927 74.384C403.287 75.664 402.401 76.624 401.271 77.264C400.14 77.904 398.839 78.224 397.367 78.224ZM397.847 74.8C398.807 74.8 399.66 74.5867 400.407 74.16C401.175 73.7333 401.783 73.1147 402.231 72.304C402.7 71.4933 402.935 70.544 402.935 69.456C402.935 68.3467 402.7 67.3973 402.231 66.608C401.783 65.7973 401.175 65.1787 400.407 64.752C399.66 64.3253 398.807 64.112 397.847 64.112C396.887 64.112 396.023 64.3253 395.255 64.752C394.508 65.1787 393.9 65.7973 393.431 66.608C392.983 67.3973 392.759 68.3467 392.759 69.456C392.759 70.544 392.983 71.4933 393.431 72.304C393.9 73.1147 394.508 73.7333 395.255 74.16C396.023 74.5867 396.887 74.8 397.847 74.8ZM403.031 78V73.968L403.191 69.424L402.871 64.88V54.256H406.839V78H403.031ZM420.135 78.224C418.237 78.224 416.573 77.8507 415.143 77.104C413.735 76.336 412.637 75.2907 411.847 73.968C411.079 72.6453 410.695 71.1413 410.695 69.456C410.695 67.7493 411.069 66.2453 411.815 64.944C412.583 63.6213 413.629 62.5867 414.951 61.84C416.295 61.0933 417.821 60.72 419.527 60.72C421.191 60.72 422.674 61.0827 423.975 61.808C425.277 62.5333 426.301 63.5573 427.047 64.88C427.794 66.2027 428.167 67.76 428.167 69.552C428.167 69.7227 428.157 69.9147 428.135 70.128C428.135 70.3413 428.125 70.544 428.103 70.736H413.863V68.08H425.991L424.423 68.912C424.445 67.9307 424.242 67.0667 423.815 66.32C423.389 65.5733 422.802 64.9867 422.055 64.56C421.33 64.1333 420.487 63.92 419.527 63.92C418.546 63.92 417.682 64.1333 416.935 64.56C416.21 64.9867 415.634 65.584 415.207 66.352C414.802 67.0987 414.599 67.984 414.599 69.008V69.648C414.599 70.672 414.834 71.5787 415.303 72.368C415.773 73.1573 416.434 73.7653 417.287 74.192C418.141 74.6187 419.122 74.832 420.231 74.832C421.191 74.832 422.055 74.6827 422.823 74.384C423.591 74.0853 424.274 73.616 424.871 72.976L427.015 75.44C426.247 76.336 425.277 77.0293 424.103 77.52C422.951 77.9893 421.629 78.224 420.135 78.224ZM448.085 78.224C446.443 78.224 444.96 77.8613 443.637 77.136C442.336 76.3893 441.312 75.3653 440.565 74.064C439.819 72.7627 439.445 71.2267 439.445 69.456C439.445 67.6853 439.819 66.1493 440.565 64.848C441.312 63.5467 442.336 62.5333 443.637 61.808C444.96 61.0827 446.443 60.72 448.085 60.72C449.515 60.72 450.795 61.04 451.925 61.68C453.056 62.2987 453.952 63.248 454.613 64.528C455.275 65.808 455.605 67.4507 455.605 69.456C455.605 71.44 455.285 73.0827 454.645 74.384C454.005 75.664 453.12 76.624 451.989 77.264C450.859 77.904 449.557 78.224 448.085 78.224ZM448.565 74.8C449.525 74.8 450.379 74.5867 451.125 74.16C451.893 73.7333 452.501 73.1147 452.949 72.304C453.419 71.4933 453.653 70.544 453.653 69.456C453.653 68.3467 453.419 67.3973 452.949 66.608C452.501 65.7973 451.893 65.1787 451.125 64.752C450.379 64.3253 449.525 64.112 448.565 64.112C447.605 64.112 446.741 64.3253 445.973 64.752C445.227 65.1787 444.619 65.7973 444.149 66.608C443.701 67.3973 443.477 68.3467 443.477 69.456C443.477 70.544 443.701 71.4933 444.149 72.304C444.619 73.1147 445.227 73.7333 445.973 74.16C446.741 74.5867 447.605 74.8 448.565 74.8ZM453.749 78V73.968L453.909 69.424L453.589 64.88V54.256H457.557V78H453.749ZM473.35 78V74.544L473.126 73.808V67.76C473.126 66.5867 472.774 65.68 472.07 65.04C471.366 64.3787 470.299 64.048 468.87 64.048C467.91 64.048 466.961 64.1973 466.022 64.496C465.105 64.7947 464.326 65.2107 463.686 65.744L462.118 62.832C463.035 62.128 464.123 61.6053 465.382 61.264C466.662 60.9013 467.985 60.72 469.35 60.72C471.825 60.72 473.734 61.3173 475.078 62.512C476.443 63.6853 477.126 65.5093 477.126 67.984V78H473.35ZM467.974 78.224C466.694 78.224 465.574 78.0107 464.614 77.584C463.654 77.136 462.907 76.528 462.374 75.76C461.862 74.9707 461.606 74.0853 461.606 73.104C461.606 72.144 461.83 71.28 462.278 70.512C462.747 69.744 463.505 69.136 464.55 68.688C465.595 68.24 466.982 68.016 468.71 68.016H473.67V70.672H468.998C467.633 70.672 466.715 70.896 466.246 71.344C465.777 71.7707 465.542 72.304 465.542 72.944C465.542 73.6693 465.83 74.2453 466.406 74.672C466.982 75.0987 467.782 75.312 468.806 75.312C469.787 75.312 470.662 75.088 471.43 74.64C472.219 74.192 472.785 73.5307 473.126 72.656L473.798 75.056C473.414 76.0587 472.721 76.8373 471.718 77.392C470.737 77.9467 469.489 78.224 467.974 78.224ZM489.523 78.224C487.88 78.224 486.398 77.8613 485.075 77.136C483.774 76.3893 482.75 75.3653 482.003 74.064C481.256 72.7627 480.883 71.2267 480.883 69.456C480.883 67.6853 481.256 66.1493 482.003 64.848C482.75 63.5467 483.774 62.5333 485.075 61.808C486.398 61.0827 487.88 60.72 489.523 60.72C490.952 60.72 492.232 61.04 493.363 61.68C494.494 62.2987 495.39 63.248 496.051 64.528C496.712 65.808 497.043 67.4507 497.043 69.456C497.043 71.44 496.723 73.0827 496.083 74.384C495.443 75.664 494.558 76.624 493.427 77.264C492.296 77.904 490.995 78.224 489.523 78.224ZM490.003 74.8C490.963 74.8 491.816 74.5867 492.563 74.16C493.331 73.7333 493.939 73.1147 494.387 72.304C494.856 71.4933 495.091 70.544 495.091 69.456C495.091 68.3467 494.856 67.3973 494.387 66.608C493.939 65.7973 493.331 65.1787 492.563 64.752C491.816 64.3253 490.963 64.112 490.003 64.112C489.043 64.112 488.179 64.3253 487.411 64.752C486.664 65.1787 486.056 65.7973 485.587 66.608C485.139 67.3973 484.915 68.3467 484.915 69.456C484.915 70.544 485.139 71.4933 485.587 72.304C486.056 73.1147 486.664 73.7333 487.411 74.16C488.179 74.5867 489.043 74.8 490.003 74.8ZM495.187 78V73.968L495.347 69.424L495.027 64.88V54.256H498.995V78H495.187ZM511.94 78.224C510.19 78.224 508.633 77.8507 507.268 77.104C505.902 76.336 504.825 75.2907 504.036 73.968C503.246 72.6453 502.852 71.1413 502.852 69.456C502.852 67.7493 503.246 66.2453 504.036 64.944C504.825 63.6213 505.902 62.5867 507.268 61.84C508.633 61.0933 510.19 60.72 511.94 60.72C513.71 60.72 515.278 61.0933 516.644 61.84C518.03 62.5867 519.108 63.6107 519.876 64.912C520.665 66.2133 521.06 67.728 521.06 69.456C521.06 71.1413 520.665 72.6453 519.876 73.968C519.108 75.2907 518.03 76.336 516.644 77.104C515.278 77.8507 513.71 78.224 511.94 78.224ZM511.94 74.8C512.921 74.8 513.796 74.5867 514.564 74.16C515.332 73.7333 515.929 73.1147 516.356 72.304C516.804 71.4933 517.028 70.544 517.028 69.456C517.028 68.3467 516.804 67.3973 516.356 66.608C515.929 65.7973 515.332 65.1787 514.564 64.752C513.796 64.3253 512.932 64.112 511.972 64.112C510.99 64.112 510.116 64.3253 509.348 64.752C508.601 65.1787 508.004 65.7973 507.556 66.608C507.108 67.3973 506.884 68.3467 506.884 69.456C506.884 70.544 507.108 71.4933 507.556 72.304C508.004 73.1147 508.601 73.7333 509.348 74.16C510.116 74.5867 510.98 74.8 511.94 74.8ZM530.165 78.224C528.735 78.224 527.359 78.0427 526.037 77.68C524.735 77.296 523.701 76.8373 522.933 76.304L524.469 73.264C525.237 73.7547 526.154 74.16 527.221 74.48C528.287 74.8 529.354 74.96 530.421 74.96C531.679 74.96 532.586 74.7893 533.141 74.448C533.717 74.1067 534.005 73.648 534.005 73.072C534.005 72.6027 533.813 72.2507 533.429 72.016C533.045 71.76 532.543 71.568 531.925 71.44C531.306 71.312 530.613 71.1947 529.845 71.088C529.098 70.9813 528.341 70.8427 527.573 70.672C526.826 70.48 526.143 70.2133 525.525 69.872C524.906 69.5093 524.405 69.0293 524.021 68.432C523.637 67.8347 523.445 67.0453 523.445 66.064C523.445 64.976 523.754 64.0373 524.373 63.248C524.991 62.4373 525.855 61.8187 526.965 61.392C528.095 60.944 529.429 60.72 530.965 60.72C532.117 60.72 533.279 60.848 534.453 61.104C535.626 61.36 536.597 61.7227 537.365 62.192L535.829 65.232C535.018 64.7413 534.197 64.4107 533.365 64.24C532.554 64.048 531.743 63.952 530.933 63.952C529.717 63.952 528.81 64.1333 528.213 64.496C527.637 64.8587 527.349 65.3173 527.349 65.872C527.349 66.384 527.541 66.768 527.925 67.024C528.309 67.28 528.81 67.4827 529.429 67.632C530.047 67.7813 530.73 67.9093 531.477 68.016C532.245 68.1013 533.002 68.24 533.749 68.432C534.495 68.624 535.178 68.8907 535.797 69.232C536.437 69.552 536.949 70.0107 537.333 70.608C537.717 71.2053 537.909 71.984 537.909 72.944C537.909 74.0107 537.589 74.9387 536.949 75.728C536.33 76.5173 535.445 77.136 534.293 77.584C533.141 78.0107 531.765 78.224 530.165 78.224ZM541.609 70.576L540.841 55.6H545.577L544.777 70.576H541.609ZM543.209 78.224C542.463 78.224 541.844 77.9787 541.353 77.488C540.863 76.9973 540.617 76.4107 540.617 75.728C540.617 75.0453 540.863 74.4693 541.353 74C541.844 73.5093 542.463 73.264 543.209 73.264C543.956 73.264 544.564 73.5093 545.033 74C545.503 74.4693 545.737 75.0453 545.737 75.728C545.737 76.4107 545.503 76.9973 545.033 77.488C544.564 77.9787 543.956 78.224 543.209 78.224Z" fill="black"/>
</svg>
